# Tiled2Unity generated file. Do not modify by hand.
# Wavefront file for 'Mapa4_mesh_0003.obj'

# Vertices (Count = 264)
v -6.857143 -0.7619048 0
v -7.619048 -0.7619048 0
v -7.619048 0 0
v -6.857143 0 0
v -7.619048 -0.7619048 0
v -8.380953 -0.7619048 0
v -8.380953 0 0
v -7.619048 0 0
v -8.380953 -0.7619048 0
v -9.142858 -0.7619048 0
v -9.142858 0 0
v -8.380953 0 0
v -9.142858 -0.7619048 0
v -9.904762 -0.7619048 0
v -9.904762 0 0
v -9.142858 0 0
v -9.904762 -0.7619048 0
v -10.66667 -0.7619048 0
v -10.66667 0 0
v -9.904762 0 0
v -10.66667 -0.7619048 0
v -11.42857 -0.7619048 0
v -11.42857 0 0
v -10.66667 0 0
v -11.42857 -0.7619048 0
v -12.19048 -0.7619048 0
v -12.19048 0 0
v -11.42857 0 0
v -0.7619048 -1.52381 0
v -1.52381 -1.52381 0
v -1.52381 -0.7619048 0
v -0.7619048 -0.7619048 0
v -1.52381 -1.52381 0
v -2.285714 -1.52381 0
v -2.285714 -0.7619048 0
v -1.52381 -0.7619048 0
v -3.047619 -1.52381 0
v -3.809524 -1.52381 0
v -3.809524 -0.7619048 0
v -3.047619 -0.7619048 0
v -3.809524 -1.52381 0
v -4.571429 -1.52381 0
v -4.571429 -0.7619048 0
v -3.809524 -0.7619048 0
v -4.571429 -1.52381 0
v -5.333333 -1.52381 0
v -5.333333 -0.7619048 0
v -4.571429 -0.7619048 0
v -6.095238 -1.52381 0
v -6.857143 -1.52381 0
v -6.857143 -0.7619048 0
v -6.095238 -0.7619048 0
v -6.857143 -1.52381 0
v -7.619048 -1.52381 0
v -7.619048 -0.7619048 0
v -6.857143 -0.7619048 0
v -7.619048 -1.52381 0
v -8.380953 -1.52381 0
v -8.380953 -0.7619048 0
v -7.619048 -0.7619048 0
v -8.380953 -1.52381 0
v -9.142858 -1.52381 0
v -9.142858 -0.7619048 0
v -8.380953 -0.7619048 0
v -11.42857 -1.52381 0
v -12.19048 -1.52381 0
v -12.19048 -0.7619048 0
v -11.42857 -0.7619048 0
v -0.7619048 -2.285714 0
v -1.52381 -2.285714 0
v -1.52381 -1.52381 0
v -0.7619048 -1.52381 0
v -1.52381 -2.285714 0
v -2.285714 -2.285714 0
v -2.285714 -1.52381 0
v -1.52381 -1.52381 0
v -3.047619 -2.285714 0
v -3.809524 -2.285714 0
v -3.809524 -1.52381 0
v -3.047619 -1.52381 0
v -3.809524 -2.285714 0
v -4.571429 -2.285714 0
v -4.571429 -1.52381 0
v -3.809524 -1.52381 0
v -4.571429 -2.285714 0
v -5.333333 -2.285714 0
v -5.333333 -1.52381 0
v -4.571429 -1.52381 0
v -9.142858 -2.285714 0
v -9.904762 -2.285714 0
v -9.904762 -1.52381 0
v -9.142858 -1.52381 0
v -10.66667 -2.285714 0
v -11.42857 -2.285714 0
v -11.42857 -1.52381 0
v -10.66667 -1.52381 0
v -11.42857 -2.285714 0
v -12.19048 -2.285714 0
v -12.19048 -1.52381 0
v -11.42857 -1.52381 0
v -3.809524 -3.047619 0
v -4.571429 -3.047619 0
v -4.571429 -2.285714 0
v -3.809524 -2.285714 0
v -4.571429 -3.047619 0
v -5.333333 -3.047619 0
v -5.333333 -2.285714 0
v -4.571429 -2.285714 0
v -5.333333 -3.047619 0
v -6.095238 -3.047619 0
v -6.095238 -2.285714 0
v -5.333333 -2.285714 0
v -6.095238 -3.047619 0
v -6.857143 -3.047619 0
v -6.857143 -2.285714 0
v -6.095238 -2.285714 0
v -7.619048 -3.047619 0
v -8.380953 -3.047619 0
v -8.380953 -2.285714 0
v -7.619048 -2.285714 0
v -8.380953 -3.047619 0
v -9.142858 -3.047619 0
v -9.142858 -2.285714 0
v -8.380953 -2.285714 0
v -9.142858 -3.047619 0
v -9.904762 -3.047619 0
v -9.904762 -2.285714 0
v -9.142858 -2.285714 0
v -11.42857 -3.047619 0
v -12.19048 -3.047619 0
v -12.19048 -2.285714 0
v -11.42857 -2.285714 0
v -3.809524 -3.809524 0
v -4.571429 -3.809524 0
v -4.571429 -3.047619 0
v -3.809524 -3.047619 0
v -4.571429 -3.809524 0
v -5.333333 -3.809524 0
v -5.333333 -3.047619 0
v -4.571429 -3.047619 0
v -5.333333 -3.809524 0
v -6.095238 -3.809524 0
v -6.095238 -3.047619 0
v -5.333333 -3.047619 0
v -6.095238 -3.809524 0
v -6.857143 -3.809524 0
v -6.857143 -3.047619 0
v -6.095238 -3.047619 0
v -6.857143 -3.809524 0
v -7.619048 -3.809524 0
v -7.619048 -3.047619 0
v -6.857143 -3.047619 0
v -7.619048 -3.809524 0
v -8.380953 -3.809524 0
v -8.380953 -3.047619 0
v -7.619048 -3.047619 0
v -8.380953 -3.809524 0
v -9.142858 -3.809524 0
v -9.142858 -3.047619 0
v -8.380953 -3.047619 0
v -9.142858 -3.809524 0
v -9.904762 -3.809524 0
v -9.904762 -3.047619 0
v -9.142858 -3.047619 0
v -11.42857 -3.809524 0
v -12.19048 -3.809524 0
v -12.19048 -3.047619 0
v -11.42857 -3.047619 0
v -4.571429 -4.571429 0
v -5.333333 -4.571429 0
v -5.333333 -3.809524 0
v -4.571429 -3.809524 0
v -5.333333 -4.571429 0
v -6.095238 -4.571429 0
v -6.095238 -3.809524 0
v -5.333333 -3.809524 0
v -6.095238 -4.571429 0
v -6.857143 -4.571429 0
v -6.857143 -3.809524 0
v -6.095238 -3.809524 0
v -7.619048 -4.571429 0
v -8.380953 -4.571429 0
v -8.380953 -3.809524 0
v -7.619048 -3.809524 0
v -8.380953 -4.571429 0
v -9.142858 -4.571429 0
v -9.142858 -3.809524 0
v -8.380953 -3.809524 0
v -9.142858 -4.571429 0
v -9.904762 -4.571429 0
v -9.904762 -3.809524 0
v -9.142858 -3.809524 0
v -9.904762 -4.571429 0
v -10.66667 -4.571429 0
v -10.66667 -3.809524 0
v -9.904762 -3.809524 0
v -11.42857 -4.571429 0
v -12.19048 -4.571429 0
v -12.19048 -3.809524 0
v -11.42857 -3.809524 0
v -8.380953 -5.333333 0
v -9.142858 -5.333333 0
v -9.142858 -4.571429 0
v -8.380953 -4.571429 0
v -9.142858 -5.333333 0
v -9.904762 -5.333333 0
v -9.904762 -4.571429 0
v -9.142858 -4.571429 0
v -9.904762 -5.333333 0
v -10.66667 -5.333333 0
v -10.66667 -4.571429 0
v -9.904762 -4.571429 0
v -11.42857 -5.333333 0
v -12.19048 -5.333333 0
v -12.19048 -4.571429 0
v -11.42857 -4.571429 0
v -2.285714 -6.095238 0
v -3.047619 -6.095238 0
v -3.047619 -5.333333 0
v -2.285714 -5.333333 0
v -3.047619 -6.095238 0
v -3.809524 -6.095238 0
v -3.809524 -5.333333 0
v -3.047619 -5.333333 0
v -11.42857 -6.095238 0
v -12.19048 -6.095238 0
v -12.19048 -5.333333 0
v -11.42857 -5.333333 0
v -9.904762 -6.857143 0
v -10.66667 -6.857143 0
v -10.66667 -6.095238 0
v -9.904762 -6.095238 0
v -11.42857 -6.857143 0
v -12.19048 -6.857143 0
v -12.19048 -6.095238 0
v -11.42857 -6.095238 0
v -6.857143 -7.619048 0
v -7.619048 -7.619048 0
v -7.619048 -6.857143 0
v -6.857143 -6.857143 0
v -7.619048 -7.619048 0
v -8.380953 -7.619048 0
v -8.380953 -6.857143 0
v -7.619048 -6.857143 0
v -8.380953 -7.619048 0
v -9.142858 -7.619048 0
v -9.142858 -6.857143 0
v -8.380953 -6.857143 0
v -9.142858 -7.619048 0
v -9.904762 -7.619048 0
v -9.904762 -6.857143 0
v -9.142858 -6.857143 0
v -9.904762 -7.619048 0
v -10.66667 -7.619048 0
v -10.66667 -6.857143 0
v -9.904762 -6.857143 0
v -10.66667 -7.619048 0
v -11.42857 -7.619048 0
v -11.42857 -6.857143 0
v -10.66667 -6.857143 0
v -11.42857 -7.619048 0
v -12.19048 -7.619048 0
v -12.19048 -6.857143 0
v -11.42857 -6.857143 0

# Texture cooridinates (Count = 91)
vt 0.05 0.5555556
vt 0.075 0.5555556
vt 0.075 0.5833334
vt 0.05 0.5833334
vt 0.075 0.6111111
vt 0.1 0.6111111
vt 0.1 0.6388889
vt 0.075 0.6388889
vt 0.125 0.5277778
vt 0.15 0.5277778
vt 0.15 0.5555556
vt 0.125 0.5555556
vt 0.175 0.5277778
vt 0.175 0.5555556
vt 0.7 0.8611111
vt 0.725 0.8611111
vt 0.725 0.8888889
vt 0.7 0.8888889
vt 0.75 0.8611111
vt 0.75 0.8888889
vt 0.775 0.8611111
vt 0.775 0.8888889
vt 0.075 0.8333333
vt 0.1 0.8333333
vt 0.1 0.8611111
vt 0.075 0.8611111
vt 0.125 0.8333333
vt 0.125 0.8611111
vt 0.15 0.8333333
vt 0.15 0.8611111
vt 0.275 0.8055556
vt 0.3 0.8055556
vt 0.3 0.8333333
vt 0.275 0.8333333
vt 0.1 0.5833334
vt 0.125 0.5
vt 0.15 0.5
vt 0.175 0.5
vt 0.7 0.8333333
vt 0.725 0.8333333
vt 0.75 0.8333333
vt 0.775 0.8333333
vt 0 0.1111111
vt 0.025 0.1111111
vt 0.025 0.1388889
vt 0 0.1388889
vt 0.225 0.8333333
vt 0.25 0.8333333
vt 0.25 0.8611111
vt 0.225 0.8611111
vt 0.325 0.8055556
vt 0.325 0.8333333
vt 0.55 0.7222222
vt 0.575 0.7222222
vt 0.575 0.75
vt 0.55 0.75
vt 0.6 0.7222222
vt 0.6 0.75
vt 0.625 0.7222222
vt 0.625 0.75
vt 0 0.1666667
vt 0.025 0.1666667
vt 0.025 0.1944444
vt 0 0.1944444
vt 0.05 0.1666667
vt 0.05 0.1944444
vt 0.075 0.1666667
vt 0.075 0.1944444
vt 0.55 0.6944444
vt 0.575 0.6944444
vt 0.6 0.6944444
vt 0.625 0.6944444
vt 0.05 0.1388889
vt 0.075 0.1388889
vt 0.55 0.6666666
vt 0.575 0.6666666
vt 0.6 0.6666666
vt 0.625 0.6666666
vt 0.05 0.1111111
vt 0.075 0.1111111
vt 0.275 0.1944444
vt 0.3 0.1944444
vt 0.3 0.2222222
vt 0.275 0.2222222
vt 0.325 0.1944444
vt 0.325 0.2222222
vt 0.2 0.8333333
vt 0.2 0.8611111
vt 0.175 0.8333333
vt 0.175 0.8611111
vt 0.1 0.5555556

# Normal
vn 0 0 -1

# Mesh description
g Mapa4_mesh_0003

# Faces
f 1/1/1 2/2/1 3/3/1 4/4/1
f 5/1/1 6/2/1 7/3/1 8/4/1
f 9/1/1 10/2/1 11/3/1 12/4/1
f 13/1/1 14/2/1 15/3/1 16/4/1
f 17/1/1 18/2/1 19/3/1 20/4/1
f 21/1/1 22/2/1 23/3/1 24/4/1
f 25/5/1 26/6/1 27/7/1 28/8/1
f 29/9/1 30/10/1 31/11/1 32/12/1
f 33/10/1 34/13/1 35/14/1 36/11/1
f 37/15/1 38/16/1 39/17/1 40/18/1
f 41/16/1 42/19/1 43/20/1 44/17/1
f 45/19/1 46/21/1 47/22/1 48/20/1
f 49/23/1 50/24/1 51/25/1 52/26/1
f 53/24/1 54/27/1 55/28/1 56/25/1
f 57/27/1 58/29/1 59/30/1 60/28/1
f 61/31/1 62/32/1 63/33/1 64/34/1
f 65/3/1 66/35/1 67/6/1 68/5/1
f 69/36/1 70/37/1 71/10/1 72/9/1
f 73/37/1 74/38/1 75/13/1 76/10/1
f 77/39/1 78/40/1 79/16/1 80/15/1
f 81/40/1 82/41/1 83/19/1 84/16/1
f 85/41/1 86/42/1 87/21/1 88/19/1
f 89/43/1 90/44/1 91/45/1 92/46/1
f 93/47/1 94/48/1 95/49/1 96/50/1
f 97/3/1 98/35/1 99/6/1 100/5/1
f 101/32/1 102/51/1 103/52/1 104/33/1
f 105/53/1 106/54/1 107/55/1 108/56/1
f 109/54/1 110/57/1 111/58/1 112/55/1
f 113/57/1 114/59/1 115/60/1 116/58/1
f 117/61/1 118/62/1 119/63/1 120/64/1
f 121/62/1 122/65/1 123/66/1 124/63/1
f 125/65/1 126/67/1 127/68/1 128/66/1
f 129/3/1 130/35/1 131/6/1 132/5/1
f 133/32/1 134/51/1 135/52/1 136/33/1
f 137/69/1 138/70/1 139/54/1 140/53/1
f 141/70/1 142/71/1 143/57/1 144/54/1
f 145/71/1 146/72/1 147/59/1 148/57/1
f 149/32/1 150/51/1 151/52/1 152/33/1
f 153/46/1 154/45/1 155/62/1 156/61/1
f 157/45/1 158/73/1 159/65/1 160/62/1
f 161/73/1 162/74/1 163/67/1 164/65/1
f 165/3/1 166/35/1 167/6/1 168/5/1
f 169/75/1 170/76/1 171/70/1 172/69/1
f 173/76/1 174/77/1 175/71/1 176/70/1
f 177/77/1 178/78/1 179/72/1 180/71/1
f 181/43/1 182/44/1 183/45/1 184/46/1
f 185/44/1 186/79/1 187/73/1 188/45/1
f 189/79/1 190/80/1 191/74/1 192/73/1
f 193/43/1 194/44/1 195/45/1 196/46/1
f 197/3/1 198/35/1 199/6/1 200/5/1
f 201/81/1 202/82/1 203/83/1 204/84/1
f 205/82/1 206/85/1 207/86/1 208/83/1
f 209/43/1 210/44/1 211/45/1 212/46/1
f 213/3/1 214/35/1 215/6/1 216/5/1
f 217/87/1 218/47/1 219/50/1 220/88/1
f 221/87/1 222/47/1 223/50/1 224/88/1
f 225/3/1 226/35/1 227/6/1 228/5/1
f 229/89/1 230/87/1 231/88/1 232/90/1
f 233/3/1 234/35/1 235/6/1 236/5/1
f 237/1/1 238/2/1 239/3/1 240/4/1
f 241/1/1 242/2/1 243/3/1 244/4/1
f 245/1/1 246/2/1 247/3/1 248/4/1
f 249/1/1 250/2/1 251/3/1 252/4/1
f 253/1/1 254/2/1 255/3/1 256/4/1
f 257/1/1 258/2/1 259/3/1 260/4/1
f 261/2/1 262/91/1 263/35/1 264/3/1

