# Tiled2Unity generated file. Do not modify by hand.
# Wavefront file for 'Mapa4_mesh_0002.obj'

# Vertices (Count = 180)
v 0 -0.7619048 0
v -0.7619048 -0.7619048 0
v -0.7619048 0 0
v 0 0 0
v -0.7619048 -0.7619048 0
v -1.52381 -0.7619048 0
v -1.52381 0 0
v -0.7619048 0 0
v -1.52381 -0.7619048 0
v -2.285714 -0.7619048 0
v -2.285714 0 0
v -1.52381 0 0
v -2.285714 -0.7619048 0
v -3.047619 -0.7619048 0
v -3.047619 0 0
v -2.285714 0 0
v -3.047619 -0.7619048 0
v -3.809524 -0.7619048 0
v -3.809524 0 0
v -3.047619 0 0
v -3.809524 -0.7619048 0
v -4.571429 -0.7619048 0
v -4.571429 0 0
v -3.809524 0 0
v -4.571429 -0.7619048 0
v -5.333333 -0.7619048 0
v -5.333333 0 0
v -4.571429 0 0
v -5.333333 -0.7619048 0
v -6.095238 -0.7619048 0
v -6.095238 0 0
v -5.333333 0 0
v -6.095238 -0.7619048 0
v -6.857143 -0.7619048 0
v -6.857143 0 0
v -6.095238 0 0
v -6.857143 -0.7619048 0
v -7.619048 -0.7619048 0
v -7.619048 0 0
v -6.857143 0 0
v 0 -1.52381 0
v -0.7619048 -1.52381 0
v -0.7619048 -0.7619048 0
v 0 -0.7619048 0
v 0 -2.285714 0
v -0.7619048 -2.285714 0
v -0.7619048 -1.52381 0
v 0 -1.52381 0
v 0 -3.047619 0
v -0.7619048 -3.047619 0
v -0.7619048 -2.285714 0
v 0 -2.285714 0
v 0 -3.809524 0
v -0.7619048 -3.809524 0
v -0.7619048 -3.047619 0
v 0 -3.047619 0
v 0 -4.571429 0
v -0.7619048 -4.571429 0
v -0.7619048 -3.809524 0
v 0 -3.809524 0
v 0 -5.333333 0
v -0.7619048 -5.333333 0
v -0.7619048 -4.571429 0
v 0 -4.571429 0
v -4.571429 -5.333333 0
v -5.333333 -5.333333 0
v -5.333333 -4.571429 0
v -4.571429 -4.571429 0
v -5.333333 -5.333333 0
v -6.095238 -5.333333 0
v -6.095238 -4.571429 0
v -5.333333 -4.571429 0
v -6.095238 -5.333333 0
v -6.857143 -5.333333 0
v -6.857143 -4.571429 0
v -6.095238 -4.571429 0
v -6.857143 -5.333333 0
v -7.619048 -5.333333 0
v -7.619048 -4.571429 0
v -6.857143 -4.571429 0
v -7.619048 -5.333333 0
v -8.380953 -5.333333 0
v -8.380953 -4.571429 0
v -7.619048 -4.571429 0
v 0 -6.095238 0
v -0.7619048 -6.095238 0
v -0.7619048 -5.333333 0
v 0 -5.333333 0
v -4.571429 -6.095238 0
v -5.333333 -6.095238 0
v -5.333333 -5.333333 0
v -4.571429 -5.333333 0
v -5.333333 -6.095238 0
v -6.095238 -6.095238 0
v -6.095238 -5.333333 0
v -5.333333 -5.333333 0
v -6.095238 -6.095238 0
v -6.857143 -6.095238 0
v -6.857143 -5.333333 0
v -6.095238 -5.333333 0
v -6.857143 -6.095238 0
v -7.619048 -6.095238 0
v -7.619048 -5.333333 0
v -6.857143 -5.333333 0
v -7.619048 -6.095238 0
v -8.380953 -6.095238 0
v -8.380953 -5.333333 0
v -7.619048 -5.333333 0
v -8.380953 -6.095238 0
v -9.142858 -6.095238 0
v -9.142858 -5.333333 0
v -8.380953 -5.333333 0
v 0 -6.857143 0
v -0.7619048 -6.857143 0
v -0.7619048 -6.095238 0
v 0 -6.095238 0
v -4.571429 -6.857143 0
v -5.333333 -6.857143 0
v -5.333333 -6.095238 0
v -4.571429 -6.095238 0
v -5.333333 -6.857143 0
v -6.095238 -6.857143 0
v -6.095238 -6.095238 0
v -5.333333 -6.095238 0
v -6.095238 -6.857143 0
v -6.857143 -6.857143 0
v -6.857143 -6.095238 0
v -6.095238 -6.095238 0
v -6.857143 -6.857143 0
v -7.619048 -6.857143 0
v -7.619048 -6.095238 0
v -6.857143 -6.095238 0
v -7.619048 -6.857143 0
v -8.380953 -6.857143 0
v -8.380953 -6.095238 0
v -7.619048 -6.095238 0
v -8.380953 -6.857143 0
v -9.142858 -6.857143 0
v -9.142858 -6.095238 0
v -8.380953 -6.095238 0
v 0 -7.619048 0
v -0.7619048 -7.619048 0
v -0.7619048 -6.857143 0
v 0 -6.857143 0
v -0.7619048 -7.619048 0
v -1.52381 -7.619048 0
v -1.52381 -6.857143 0
v -0.7619048 -6.857143 0
v -1.52381 -7.619048 0
v -2.285714 -7.619048 0
v -2.285714 -6.857143 0
v -1.52381 -6.857143 0
v -2.285714 -7.619048 0
v -3.047619 -7.619048 0
v -3.047619 -6.857143 0
v -2.285714 -6.857143 0
v -3.047619 -7.619048 0
v -3.809524 -7.619048 0
v -3.809524 -6.857143 0
v -3.047619 -6.857143 0
v -3.809524 -7.619048 0
v -4.571429 -7.619048 0
v -4.571429 -6.857143 0
v -3.809524 -6.857143 0
v -4.571429 -7.619048 0
v -5.333333 -7.619048 0
v -5.333333 -6.857143 0
v -4.571429 -6.857143 0
v -5.333333 -7.619048 0
v -6.095238 -7.619048 0
v -6.095238 -6.857143 0
v -5.333333 -6.857143 0
v -6.095238 -7.619048 0
v -6.857143 -7.619048 0
v -6.857143 -6.857143 0
v -6.095238 -6.857143 0
v -6.857143 -7.619048 0
v -7.619048 -7.619048 0
v -7.619048 -6.857143 0
v -6.857143 -6.857143 0

# Texture cooridinates (Count = 45)
vt 0.025 0.6111111
vt 0.05 0.6111111
vt 0.05 0.6388889
vt 0.025 0.6388889
vt 0.075 0.6111111
vt 0.075 0.6388889
vt 0.1 0.6111111
vt 0.1 0.6388889
vt 0.025 0.5833334
vt 0.05 0.5833334
vt 0.05 0.8055556
vt 0.075 0.8055556
vt 0.075 0.8333333
vt 0.05 0.8333333
vt 0.1 0.8055556
vt 0.1 0.8333333
vt 0.05 0.7777778
vt 0.075 0.7777778
vt 0.075 0.8888889
vt 0.1 0.8888889
vt 0.1 0.9166667
vt 0.075 0.9166667
vt 0.075 0.8611111
vt 0.1 0.8611111
vt 0.025 0.9166667
vt 0.05 0.9166667
vt 0.05 0.9444444
vt 0.025 0.9444444
vt 0.125 0.8611111
vt 0.15 0.8611111
vt 0.15 0.8888889
vt 0.125 0.8888889
vt 0.1 0.7777778
vt 0.125 0.7777778
vt 0.125 0.8055556
vt 0.05 0.75
vt 0.075 0.75
vt 0.1 0.75
vt 0.125 0.75
vt 0.025 0.5555556
vt 0.05 0.5555556
vt 0.075 0.5555556
vt 0.075 0.5833334
vt 0.1 0.5555556
vt 0.1 0.5833334

# Normal
vn 0 0 -1

# Mesh description
g Mapa4_mesh_0002

# Faces
f 1/1/1 2/2/1 3/3/1 4/4/1
f 5/2/1 6/5/1 7/6/1 8/3/1
f 9/2/1 10/5/1 11/6/1 12/3/1
f 13/2/1 14/5/1 15/6/1 16/3/1
f 17/2/1 18/5/1 19/6/1 20/3/1
f 21/2/1 22/5/1 23/6/1 24/3/1
f 25/2/1 26/5/1 27/6/1 28/3/1
f 29/2/1 30/5/1 31/6/1 32/3/1
f 33/2/1 34/5/1 35/6/1 36/3/1
f 37/5/1 38/7/1 39/8/1 40/6/1
f 41/9/1 42/10/1 43/2/1 44/1/1
f 45/9/1 46/10/1 47/2/1 48/1/1
f 49/9/1 50/10/1 51/2/1 52/1/1
f 53/9/1 54/10/1 55/2/1 56/1/1
f 57/9/1 58/10/1 59/2/1 60/1/1
f 61/9/1 62/10/1 63/2/1 64/1/1
f 65/11/1 66/12/1 67/13/1 68/14/1
f 69/12/1 70/15/1 71/16/1 72/13/1
f 73/12/1 74/15/1 75/16/1 76/13/1
f 77/12/1 78/15/1 79/16/1 80/13/1
f 81/12/1 82/15/1 83/16/1 84/13/1
f 85/9/1 86/10/1 87/2/1 88/1/1
f 89/17/1 90/18/1 91/12/1 92/11/1
f 93/19/1 94/20/1 95/21/1 96/22/1
f 97/23/1 98/24/1 99/20/1 100/19/1
f 101/25/1 102/26/1 103/27/1 104/28/1
f 105/29/1 106/30/1 107/31/1 108/32/1
f 109/33/1 110/34/1 111/35/1 112/15/1
f 113/9/1 114/10/1 115/2/1 116/1/1
f 117/36/1 118/37/1 119/18/1 120/17/1
f 121/37/1 122/38/1 123/33/1 124/18/1
f 125/37/1 126/38/1 127/33/1 128/18/1
f 129/37/1 130/38/1 131/33/1 132/18/1
f 133/37/1 134/38/1 135/33/1 136/18/1
f 137/38/1 138/39/1 139/34/1 140/33/1
f 141/40/1 142/41/1 143/10/1 144/9/1
f 145/41/1 146/42/1 147/43/1 148/10/1
f 149/41/1 150/42/1 151/43/1 152/10/1
f 153/41/1 154/42/1 155/43/1 156/10/1
f 157/41/1 158/42/1 159/43/1 160/10/1
f 161/41/1 162/42/1 163/43/1 164/10/1
f 165/41/1 166/42/1 167/43/1 168/10/1
f 169/41/1 170/42/1 171/43/1 172/10/1
f 173/41/1 174/42/1 175/43/1 176/10/1
f 177/42/1 178/44/1 179/45/1 180/43/1

